<svg id="svg" version="1.1" xmlns="http://www.w3.org/2000/svg" xmlns:xlink="http://www.w3.org/1999/xlink" width="400" height="400" viewBox="0, 0, 400,400"><g id="svgg"><path id="path0" d="M296.400 128.073 C 289.332 128.913,284.284 130.045,277.600 132.288 C 272.002 134.166,261.997 139.333,260.400 141.170 C 260.290 141.296,259.032 142.390,257.604 143.600 C 251.015 149.183,245.295 156.734,241.999 164.200 C 241.319 165.740,240.603 167.360,240.408 167.800 C 240.213 168.240,239.862 169.230,239.630 170.000 C 239.397 170.770,238.919 172.300,238.568 173.400 C 234.228 187.008,235.432 211.534,241.072 224.400 C 255.441 257.180,290.420 269.461,338.000 258.429 C 339.852 258.000,340.864 257.738,345.000 256.621 C 348.463 255.686,355.151 253.598,356.900 252.906 L 358.400 252.313 358.400 220.357 L 358.400 188.400 328.600 188.400 L 298.800 188.400 298.800 200.794 L 298.800 213.189 311.700 213.294 L 324.600 213.400 324.706 225.752 C 324.781 234.533,324.680 238.262,324.357 238.652 C 323.419 239.782,309.683 239.338,302.400 237.941 C 287.404 235.066,276.757 225.639,272.649 211.600 C 269.023 199.207,269.964 183.939,275.006 173.385 C 282.033 158.672,298.074 150.556,316.500 152.391 C 327.713 153.507,335.741 156.667,347.753 164.690 C 353.791 168.723,354.691 169.200,356.257 169.200 L 358.010 169.200 357.905 154.134 L 357.800 139.069 356.600 138.406 C 350.713 135.154,337.933 130.840,330.600 129.628 C 329.060 129.374,327.260 129.074,326.600 128.963 C 319.169 127.707,303.387 127.242,296.400 128.073 M41.600 195.000 L 41.600 260.000 88.606 260.000 L 135.612 260.000 135.506 247.700 L 135.400 235.400 105.300 235.297 L 75.200 235.195 75.200 182.597 L 75.200 130.000 58.400 130.000 L 41.600 130.000 41.600 195.000 M142.400 195.000 L 142.400 260.000 189.400 260.000 L 236.400 260.000 236.400 247.843 C 236.400 237.126,236.325 235.657,235.767 235.443 C 235.419 235.309,221.829 235.200,205.567 235.200 L 176.000 235.200 176.000 182.600 L 176.000 130.000 159.200 130.000 L 142.400 130.000 142.400 195.000 " stroke="none" fill="#fafafa" fill-rule="evenodd"></path><path id="path1" d="M0.000 200.000 L 0.000 400.000 200.000 400.000 L 400.000 400.000 400.000 200.000 L 400.000 0.000 200.000 0.000 L 0.000 0.000 0.000 200.000 M324.000 127.943 C 325.650 128.173,327.990 128.531,329.200 128.739 C 330.410 128.948,332.120 129.242,333.000 129.392 C 333.880 129.543,335.050 129.811,335.600 129.987 C 336.150 130.163,337.410 130.534,338.400 130.810 C 344.005 132.377,356.796 137.323,358.300 138.505 C 358.684 138.807,358.800 142.444,358.800 154.249 L 358.800 169.600 356.380 169.600 C 353.979 169.600,353.918 169.571,348.420 165.800 C 345.374 163.710,342.683 162.000,342.440 162.000 C 342.198 162.000,342.000 161.864,342.000 161.698 C 342.000 161.531,341.415 161.141,340.700 160.830 C 339.985 160.519,339.310 160.157,339.200 160.027 C 338.807 159.560,331.835 156.400,331.199 156.400 C 330.974 156.400,330.477 156.238,330.095 156.039 C 329.713 155.840,328.590 155.460,327.600 155.193 C 326.610 154.927,325.440 154.560,325.000 154.379 C 322.498 153.348,312.835 152.665,307.341 153.131 C 301.206 153.651,298.609 154.195,295.304 155.652 C 294.372 156.064,293.463 156.400,293.284 156.400 C 292.701 156.400,290.806 157.393,290.803 157.700 C 290.801 157.865,290.610 158.000,290.378 158.000 C 289.518 158.000,284.917 161.440,282.384 163.979 C 278.796 167.573,277.704 169.136,275.381 174.000 C 274.803 175.210,274.166 176.513,273.965 176.895 C 273.764 177.277,273.600 177.941,273.600 178.371 C 273.600 178.801,273.420 179.264,273.200 179.400 C 272.980 179.536,272.800 180.141,272.800 180.744 C 272.800 181.347,272.637 182.011,272.439 182.220 C 271.432 183.279,271.064 201.275,271.958 205.800 C 272.218 207.120,272.533 208.876,272.658 209.703 C 272.783 210.529,273.045 211.305,273.242 211.426 C 273.439 211.548,273.600 211.999,273.600 212.429 C 273.600 212.859,273.759 213.523,273.953 213.905 C 274.148 214.287,274.529 215.140,274.800 215.800 C 278.086 223.794,284.525 230.551,292.145 234.003 C 300.304 237.699,318.343 240.085,323.414 238.139 C 323.911 237.949,324.000 236.065,324.000 225.757 L 324.000 213.600 311.200 213.600 L 298.400 213.600 298.400 200.800 L 298.400 188.000 328.520 188.000 C 351.413 188.000,358.755 188.115,359.120 188.480 C 359.821 189.181,359.789 251.532,359.087 252.410 C 358.819 252.746,356.710 253.619,354.400 254.351 C 352.090 255.084,349.887 255.844,349.505 256.041 C 349.123 256.239,348.369 256.400,347.829 256.400 C 347.289 256.400,346.736 256.580,346.600 256.800 C 346.464 257.020,345.834 257.200,345.200 257.200 C 344.566 257.200,343.936 257.380,343.800 257.600 C 343.664 257.820,342.944 258.000,342.200 258.000 C 341.456 258.000,340.736 258.180,340.600 258.400 C 340.464 258.620,339.744 258.800,339.000 258.800 C 338.256 258.800,337.548 258.961,337.426 259.158 C 337.305 259.355,336.529 259.615,335.703 259.737 C 334.876 259.859,333.210 260.156,332.000 260.395 C 322.474 262.283,319.404 262.549,307.000 262.557 C 296.019 262.565,293.083 262.363,287.200 261.196 C 285.990 260.956,284.324 260.659,283.497 260.537 C 282.671 260.415,281.895 260.155,281.774 259.958 C 281.652 259.761,281.034 259.600,280.400 259.600 C 279.766 259.600,279.136 259.420,279.000 259.200 C 278.864 258.980,278.401 258.800,277.971 258.800 C 277.541 258.800,276.877 258.641,276.495 258.447 C 275.721 258.053,273.824 257.250,272.600 256.797 C 264.622 253.847,253.717 245.587,248.577 238.600 C 247.930 237.721,247.085 236.652,246.700 236.225 C 246.315 235.798,246.000 235.213,246.000 234.925 C 246.000 234.636,245.841 234.400,245.647 234.400 C 245.452 234.400,245.193 234.085,245.071 233.700 C 244.851 233.004,243.587 230.782,243.195 230.400 C 242.961 230.173,241.278 226.661,240.749 225.300 C 240.557 224.805,240.232 223.995,240.026 223.500 C 238.665 220.221,237.268 215.013,236.138 209.000 C 235.261 204.330,235.118 186.390,235.927 182.400 C 237.583 174.230,238.750 169.928,240.269 166.400 C 241.647 163.196,244.579 157.600,244.878 157.600 C 245.055 157.600,245.204 157.375,245.208 157.100 C 245.223 156.173,249.604 150.627,253.298 146.860 C 259.206 140.835,266.524 135.841,273.311 133.203 C 275.120 132.499,276.960 131.776,277.400 131.595 C 277.840 131.415,278.650 131.150,279.200 131.006 C 279.750 130.863,280.830 130.566,281.600 130.346 C 285.566 129.214,289.070 128.500,292.909 128.040 C 294.398 127.862,295.740 127.593,295.891 127.442 C 296.302 127.031,320.544 127.464,324.000 127.943 M75.901 182.300 L 76.003 234.800 105.814 234.800 C 130.682 234.800,135.660 234.891,135.835 235.348 C 135.951 235.649,136.080 241.364,136.123 248.048 L 136.200 260.200 88.800 260.200 L 41.400 260.200 41.297 195.400 C 41.241 159.760,41.281 130.373,41.386 130.096 C 41.537 129.699,45.214 129.614,58.689 129.696 L 75.800 129.800 75.901 182.300 M176.701 182.300 L 176.803 234.800 206.614 234.800 C 230.095 234.800,236.465 234.906,236.615 235.300 C 236.720 235.575,236.849 241.290,236.902 248.000 L 237.000 260.200 189.500 260.302 L 142.000 260.403 142.000 194.997 L 142.000 129.592 159.300 129.696 L 176.600 129.800 176.701 182.300 M74.400 289.024 C 74.400 290.540,74.243 291.200,73.881 291.200 C 73.596 291.200,72.696 291.882,71.882 292.716 L 70.402 294.232 72.392 296.352 L 74.383 298.473 74.395 332.166 C 74.402 350.697,74.295 365.971,74.157 366.109 C 74.020 366.247,71.289 363.669,68.088 360.380 C 64.888 357.091,61.951 354.400,61.562 354.400 C 61.173 354.400,60.733 353.995,60.584 353.500 C 60.436 353.005,54.529 346.792,47.457 339.694 C 40.386 332.595,34.553 326.650,34.496 326.481 C 34.330 325.993,73.632 286.373,74.036 286.622 C 74.236 286.746,74.400 287.827,74.400 289.024 M102.046 298.137 C 102.182 298.322,108.469 304.679,116.018 312.264 L 129.742 326.055 109.996 345.804 C 99.135 356.667,90.082 365.451,89.879 365.325 C 89.377 365.015,89.786 361.071,90.339 360.887 C 91.102 360.633,93.200 358.501,93.200 357.981 C 93.200 357.707,92.381 356.607,91.379 355.537 C 88.863 352.847,89.541 352.174,92.160 354.761 C 94.611 357.181,94.666 357.189,96.381 355.420 C 97.718 354.040,97.718 354.040,96.997 352.920 C 96.282 351.810,96.283 351.806,97.070 352.500 C 98.166 353.467,98.450 353.399,100.004 351.796 L 101.365 350.392 99.196 348.196 C 96.623 345.590,95.036 345.266,93.627 347.057 C 92.789 348.121,92.928 348.759,94.200 349.694 C 94.446 349.875,94.402 349.990,94.087 349.994 C 93.806 349.997,93.471 349.730,93.345 349.400 C 93.022 348.558,91.857 348.653,91.009 349.591 C 90.615 350.025,90.137 350.285,89.947 350.167 C 89.544 349.918,89.467 287.066,89.869 286.664 C 90.083 286.451,101.071 296.804,102.046 298.137 M66.231 298.472 C 64.836 300.102,64.394 301.702,65.200 302.200 C 65.434 302.345,65.600 301.928,65.600 301.195 C 65.600 298.508,66.520 298.520,69.452 301.248 L 72.124 303.734 72.862 302.823 C 76.193 298.709,69.684 294.438,66.231 298.472 M61.228 303.370 C 60.682 303.951,60.440 304.541,60.624 304.838 C 60.834 305.178,60.736 305.261,60.316 305.100 C 59.926 304.950,59.145 305.432,58.187 306.413 L 56.674 307.963 58.037 309.523 C 60.582 312.437,62.305 313.019,64.130 311.584 C 64.956 310.934,65.099 310.587,64.831 309.883 C 64.529 309.086,64.620 308.998,65.748 308.999 C 67.346 309.000,67.933 306.517,66.428 306.123 C 65.838 305.969,65.600 305.583,65.600 304.782 C 65.600 302.425,62.927 301.562,61.228 303.370 M68.229 303.029 C 66.821 304.436,68.246 306.539,69.979 305.611 C 71.069 305.028,71.310 303.984,70.548 303.142 C 69.727 302.235,69.055 302.202,68.229 303.029 M54.638 309.845 C 54.493 310.224,54.560 310.720,54.787 310.947 C 55.701 311.861,55.244 312.512,53.847 312.285 C 52.300 312.034,51.600 312.537,51.600 313.898 C 51.600 315.050,53.273 316.800,54.374 316.800 C 54.905 316.800,55.271 317.145,55.436 317.800 C 55.617 318.522,55.956 318.800,56.656 318.800 C 57.808 318.800,58.227 317.971,57.634 316.864 C 57.119 315.902,57.738 315.544,59.066 316.035 C 60.041 316.395,60.408 315.847,60.387 314.067 C 60.370 312.603,59.514 311.600,58.282 311.600 C 57.457 311.600,57.228 311.382,57.127 310.500 C 56.973 309.167,55.088 308.671,54.638 309.845 M119.042 321.612 C 118.176 323.777,118.134 323.645,120.433 325.957 C 122.761 328.297,124.090 328.573,125.828 327.077 L 126.900 326.155 124.650 323.869 C 122.675 321.862,122.262 321.247,122.319 320.400 C 122.401 319.167,119.607 320.200,119.042 321.612 M114.744 326.374 C 113.900 327.066,113.857 327.242,114.339 328.031 C 114.841 328.853,114.815 328.897,113.974 328.677 C 112.693 328.342,111.600 329.053,111.600 330.222 C 111.600 331.066,111.458 331.180,110.658 330.979 C 109.640 330.723,108.400 331.629,108.400 332.629 C 108.400 332.943,108.149 333.200,107.842 333.200 C 107.102 333.200,104.800 335.373,104.800 336.072 C 104.800 336.375,105.941 337.754,107.335 339.136 L 109.871 341.649 111.331 340.189 C 112.962 338.558,112.918 338.209,110.834 336.225 C 109.337 334.800,109.311 334.559,110.612 334.233 C 111.318 334.055,111.694 333.628,111.856 332.819 C 112.109 331.555,113.200 331.530,113.200 332.789 C 113.200 333.792,114.727 335.600,115.575 335.600 C 116.760 335.600,118.492 333.997,118.262 333.114 C 118.108 332.527,118.215 332.397,118.696 332.582 C 119.370 332.840,122.000 330.622,122.000 329.795 C 122.000 327.351,116.637 324.823,114.744 326.374 M116.038 329.846 C 116.502 330.405,116.473 330.473,115.820 330.346 C 115.406 330.266,114.991 329.975,114.900 329.700 C 114.662 328.986,115.404 329.082,116.038 329.846 M99.875 336.722 C 98.393 338.269,98.384 338.248,102.194 342.136 C 106.089 346.111,105.844 346.012,107.522 344.281 C 109.195 342.554,109.289 342.803,105.529 338.951 C 101.932 335.266,101.451 335.076,99.875 336.722 M99.062 341.531 C 96.367 344.510,100.344 349.343,103.968 347.494 C 105.545 346.690,105.380 346.194,102.616 343.431 C 99.602 340.417,99.918 340.586,99.062 341.531 " stroke="none" fill="#515151" fill-rule="evenodd"></path><path id="path2" d="M359.391 220.400 C 359.391 237.890,359.440 245.045,359.500 236.300 C 359.560 227.555,359.560 213.245,359.500 204.500 C 359.440 195.755,359.391 202.910,359.391 220.400 M136.168 252.200 C 136.168 256.600,136.226 258.455,136.298 256.321 C 136.370 254.188,136.370 250.588,136.299 248.321 C 136.227 246.055,136.168 247.800,136.168 252.200 M236.968 252.200 C 236.968 256.600,237.026 258.455,237.098 256.321 C 237.170 254.188,237.170 250.588,237.099 248.321 C 237.027 246.055,236.968 247.800,236.968 252.200 M54.032 306.286 C 43.230 317.225,34.439 326.313,34.496 326.481 C 34.553 326.650,40.386 332.595,47.457 339.694 C 54.529 346.792,60.436 353.005,60.584 353.500 C 60.733 353.995,61.173 354.400,61.562 354.400 C 61.951 354.400,64.888 357.091,68.088 360.380 C 71.289 363.669,74.020 366.247,74.157 366.109 C 74.295 365.971,74.402 350.697,74.395 332.166 L 74.383 298.473 72.392 296.352 L 70.402 294.232 71.882 292.716 C 72.696 291.882,73.596 291.200,73.881 291.200 C 74.489 291.200,74.631 286.990,74.036 286.622 C 73.835 286.498,64.833 295.347,54.032 306.286 M89.869 286.664 C 89.467 287.066,89.544 349.918,89.947 350.167 C 90.137 350.285,90.615 350.025,91.009 349.591 C 91.857 348.653,93.022 348.558,93.345 349.400 C 93.471 349.730,93.806 349.997,94.087 349.994 C 94.402 349.990,94.446 349.875,94.200 349.694 C 92.928 348.759,92.789 348.121,93.627 347.057 C 95.036 345.266,96.623 345.590,99.196 348.196 L 101.365 350.392 100.004 351.796 C 98.450 353.399,98.166 353.467,97.070 352.500 C 96.283 351.806,96.282 351.810,96.997 352.920 C 97.718 354.040,97.718 354.040,96.381 355.420 C 94.666 357.189,94.611 357.181,92.160 354.761 C 89.541 352.174,88.863 352.847,91.379 355.537 C 92.381 356.607,93.200 357.707,93.200 357.981 C 93.200 358.501,91.102 360.633,90.339 360.887 C 89.786 361.071,89.377 365.015,89.879 365.325 C 90.082 365.451,99.135 356.667,109.996 345.804 L 129.742 326.055 116.018 312.264 C 108.469 304.679,102.182 298.322,102.046 298.137 C 101.071 296.804,90.083 286.451,89.869 286.664 M72.564 298.031 C 73.803 299.503,73.928 301.507,72.862 302.823 L 72.124 303.734 69.452 301.248 C 66.520 298.520,65.600 298.508,65.600 301.195 C 65.600 301.928,65.434 302.345,65.200 302.200 C 64.394 301.702,64.836 300.102,66.231 298.472 C 68.155 296.224,70.884 296.034,72.564 298.031 M64.971 303.029 C 65.317 303.374,65.600 304.163,65.600 304.782 C 65.600 305.583,65.838 305.969,66.428 306.123 C 67.933 306.517,67.346 309.000,65.748 308.999 C 64.620 308.998,64.529 309.086,64.831 309.883 C 65.099 310.587,64.956 310.934,64.130 311.584 C 62.305 313.019,60.582 312.437,58.037 309.523 L 56.674 307.963 58.187 306.413 C 59.145 305.432,59.926 304.950,60.316 305.100 C 60.736 305.261,60.834 305.178,60.624 304.838 C 59.685 303.319,63.623 301.680,64.971 303.029 M70.548 303.142 C 71.466 304.157,70.504 306.000,69.055 306.000 C 68.637 306.000,67.600 304.717,67.600 304.200 C 67.600 302.658,69.494 301.978,70.548 303.142 M57.127 310.500 C 57.228 311.382,57.457 311.600,58.282 311.600 C 59.514 311.600,60.370 312.603,60.387 314.067 C 60.408 315.847,60.041 316.395,59.066 316.035 C 57.738 315.544,57.119 315.902,57.634 316.864 C 58.227 317.971,57.808 318.800,56.656 318.800 C 55.956 318.800,55.617 318.522,55.436 317.800 C 55.271 317.145,54.905 316.800,54.374 316.800 C 53.273 316.800,51.600 315.050,51.600 313.898 C 51.600 312.537,52.300 312.034,53.847 312.285 C 55.244 312.512,55.701 311.861,54.787 310.947 C 54.057 310.217,54.805 309.145,55.951 309.278 C 56.761 309.372,57.029 309.651,57.127 310.500 M122.319 320.400 C 122.262 321.247,122.675 321.862,124.650 323.869 L 126.900 326.155 125.828 327.077 C 124.090 328.573,122.761 328.297,120.433 325.957 C 118.134 323.645,118.176 323.777,119.042 321.612 C 119.607 320.200,122.401 319.167,122.319 320.400 M120.126 327.474 C 121.157 328.504,122.000 329.549,122.000 329.795 C 122.000 330.622,119.370 332.840,118.696 332.582 C 118.215 332.397,118.108 332.527,118.262 333.114 C 118.492 333.997,116.760 335.600,115.575 335.600 C 114.727 335.600,113.200 333.792,113.200 332.789 C 113.200 331.530,112.109 331.555,111.856 332.819 C 111.694 333.628,111.318 334.055,110.612 334.233 C 109.311 334.559,109.337 334.800,110.834 336.225 C 112.918 338.209,112.962 338.558,111.331 340.189 L 109.871 341.649 107.335 339.136 C 105.941 337.754,104.800 336.375,104.800 336.072 C 104.800 335.373,107.102 333.200,107.842 333.200 C 108.149 333.200,108.400 332.943,108.400 332.629 C 108.400 331.629,109.640 330.723,110.658 330.979 C 111.458 331.180,111.600 331.066,111.600 330.222 C 111.600 329.053,112.693 328.342,113.974 328.677 C 114.815 328.897,114.841 328.853,114.339 328.031 C 112.659 325.278,117.468 324.815,120.126 327.474 M114.900 329.700 C 114.991 329.975,115.406 330.266,115.820 330.346 C 116.473 330.473,116.502 330.405,116.038 329.846 C 115.404 329.082,114.662 328.986,114.900 329.700 M105.529 338.951 C 109.289 342.803,109.195 342.554,107.522 344.281 C 105.844 346.012,106.089 346.111,102.194 342.136 C 98.384 338.248,98.393 338.269,99.875 336.722 C 101.451 335.076,101.932 335.266,105.529 338.951 M102.616 343.431 C 105.380 346.194,105.545 346.690,103.968 347.494 C 100.344 349.343,96.367 344.510,99.062 341.531 C 99.918 340.586,99.602 340.417,102.616 343.431 " stroke="none" fill="#447c52" fill-rule="evenodd"></path><path id="path3" d="M296.000 127.577 C 295.450 127.741,296.710 127.798,298.800 127.705 C 300.890 127.612,302.780 127.474,303.000 127.399 C 303.826 127.118,296.957 127.292,296.000 127.577 M312.200 127.402 C 312.420 127.478,314.580 127.612,317.000 127.699 C 319.420 127.786,320.950 127.727,320.400 127.569 C 319.429 127.288,311.400 127.125,312.200 127.402 M290.421 128.379 C 290.046 128.616,290.470 128.665,291.621 128.518 C 292.599 128.392,293.475 128.225,293.567 128.145 C 293.942 127.819,290.955 128.040,290.421 128.379 M323.000 128.198 C 324.018 128.543,327.262 128.685,326.754 128.363 C 326.449 128.170,325.390 128.024,324.400 128.038 C 323.410 128.052,322.780 128.124,323.000 128.198 M328.900 129.076 C 329.285 129.176,329.915 129.176,330.300 129.076 C 330.685 128.975,330.370 128.893,329.600 128.893 C 328.830 128.893,328.515 128.975,328.900 129.076 M41.385 130.100 C 40.810 131.612,41.417 260.138,42.000 260.297 C 42.447 260.419,42.472 260.370,42.098 260.105 C 41.697 259.822,41.616 246.538,41.698 194.675 C 41.754 158.884,41.749 129.600,41.687 129.600 C 41.626 129.600,41.489 129.825,41.385 130.100 M75.190 129.863 C 75.467 130.001,75.600 147.133,75.600 182.633 L 75.600 235.200 105.700 235.103 L 135.800 235.005 105.901 234.900 L 76.003 234.795 75.901 182.331 C 75.820 140.195,75.700 129.846,75.290 129.763 C 75.009 129.706,74.965 129.751,75.190 129.863 M142.185 130.100 C 141.610 131.612,142.217 260.138,142.800 260.297 C 143.247 260.419,143.272 260.370,142.898 260.105 C 142.497 259.822,142.416 246.538,142.498 194.675 C 142.554 158.884,142.549 129.600,142.487 129.600 C 142.426 129.600,142.289 129.825,142.185 130.100 M175.990 129.863 C 176.267 130.001,176.400 147.133,176.400 182.633 L 176.400 235.200 206.500 235.103 L 236.600 235.005 206.701 234.900 L 176.803 234.795 176.701 182.331 C 176.620 140.195,176.500 129.846,176.090 129.763 C 175.810 129.706,175.764 129.751,175.990 129.863 M333.233 129.744 C 333.325 129.823,333.940 130.008,334.600 130.156 C 335.476 130.352,335.638 130.315,335.200 130.018 C 334.660 129.653,332.832 129.398,333.233 129.744 M266.300 136.629 C 264.805 137.440,264.896 137.778,266.400 137.000 C 267.060 136.659,267.600 136.294,267.600 136.190 C 267.600 135.932,267.557 135.947,266.300 136.629 M262.993 138.670 C 260.755 140.174,255.955 144.118,255.000 145.239 C 254.560 145.755,255.160 145.332,256.334 144.297 C 258.323 142.544,261.722 139.900,264.014 138.321 C 264.556 137.948,264.907 137.633,264.793 137.621 C 264.679 137.609,263.869 138.082,262.993 138.670 M357.109 138.401 L 358.419 139.200 358.309 154.362 C 358.249 162.701,358.335 169.440,358.500 169.338 C 358.888 169.098,358.882 139.541,358.494 138.960 C 358.171 138.476,356.642 137.599,356.126 137.601 C 355.947 137.602,356.389 137.962,357.109 138.401 M251.785 148.500 L 249.800 150.600 251.900 148.615 C 253.851 146.771,254.183 146.400,253.885 146.400 C 253.822 146.400,252.877 147.345,251.785 148.500 M306.000 152.800 C 303.948 153.232,306.255 153.246,309.000 152.818 L 311.000 152.507 309.200 152.506 C 308.210 152.506,306.770 152.638,306.000 152.800 M314.600 152.818 C 317.464 153.265,320.131 153.230,317.600 152.780 C 316.610 152.603,315.080 152.470,314.200 152.483 C 312.641 152.506,312.652 152.515,314.600 152.818 M301.000 153.600 L 300.200 153.944 301.000 153.966 C 301.440 153.978,302.070 153.813,302.400 153.600 C 303.195 153.086,302.196 153.086,301.000 153.600 M321.600 153.582 C 321.930 153.805,322.545 153.991,322.967 153.994 C 323.990 154.002,323.671 153.773,322.200 153.444 C 321.324 153.248,321.162 153.285,321.600 153.582 M287.469 159.237 C 286.442 159.918,285.491 160.653,285.356 160.871 C 285.222 161.089,286.121 160.596,287.356 159.777 C 289.357 158.448,289.890 158.000,289.469 158.000 C 289.396 158.000,288.497 158.557,287.469 159.237 M340.000 160.364 C 340.550 160.814,341.180 161.183,341.400 161.185 C 341.828 161.188,341.105 160.634,339.800 159.960 C 339.269 159.685,339.336 159.821,340.000 160.364 M242.716 161.300 C 242.078 162.296,241.543 163.600,241.772 163.600 C 241.853 163.600,242.295 162.880,242.753 162.000 C 243.660 160.260,243.639 159.858,242.716 161.300 M281.336 164.561 C 278.604 167.489,276.404 170.400,276.924 170.400 C 277.017 170.400,277.575 169.673,278.163 168.784 C 278.751 167.896,280.508 165.826,282.067 164.184 C 283.626 162.543,284.805 161.200,284.687 161.200 C 284.569 161.200,283.061 162.712,281.336 164.561 M342.000 161.301 C 342.000 161.476,342.805 162.041,346.100 164.178 C 346.705 164.571,347.200 164.805,347.200 164.699 C 347.200 164.524,346.395 163.959,343.100 161.822 C 342.495 161.429,342.000 161.195,342.000 161.301 M347.737 165.098 C 347.861 165.299,349.065 166.220,350.413 167.145 C 351.761 168.070,352.758 168.655,352.628 168.446 C 352.499 168.237,351.295 167.316,349.953 166.400 C 348.610 165.483,347.613 164.898,347.737 165.098 M275.892 171.952 C 275.174 173.167,274.205 175.528,274.576 175.157 C 274.931 174.803,276.785 171.052,276.665 170.932 C 276.606 170.873,276.258 171.332,275.892 171.952 M238.046 172.867 C 238.021 173.234,237.896 173.864,237.770 174.267 C 237.552 174.962,237.563 174.963,237.997 174.287 C 238.248 173.896,238.373 173.266,238.273 172.887 C 238.111 172.268,238.088 172.266,238.046 172.867 M236.240 181.240 C 236.093 182.157,236.052 182.985,236.147 183.080 C 236.242 183.176,236.446 182.510,236.600 181.600 C 236.754 180.690,236.796 179.862,236.693 179.760 C 236.590 179.657,236.387 180.323,236.240 181.240 M271.649 184.200 C 271.616 184.640,271.496 185.450,271.383 186.000 L 271.177 187.000 271.606 186.019 C 271.842 185.479,271.961 184.669,271.872 184.219 C 271.713 183.421,271.707 183.421,271.649 184.200 M235.714 186.600 C 235.717 187.700,235.795 188.103,235.887 187.495 C 235.979 186.886,235.977 185.986,235.882 185.495 C 235.787 185.003,235.711 185.500,235.714 186.600 M328.700 188.299 L 358.800 188.405 358.800 220.383 C 358.800 250.416,358.757 252.385,358.100 252.768 C 357.715 252.992,357.603 253.181,357.851 253.188 C 359.171 253.223,359.205 252.309,359.102 220.156 L 359.000 188.200 328.800 188.196 L 298.600 188.192 328.700 188.299 M235.360 195.000 C 235.361 198.300,235.422 199.597,235.498 197.882 C 235.573 196.167,235.572 193.467,235.497 191.882 C 235.421 190.297,235.359 191.700,235.360 195.000 M270.960 195.000 C 270.961 198.300,271.022 199.597,271.098 197.882 C 271.173 196.167,271.172 193.467,271.097 191.882 C 271.021 190.297,270.959 191.700,270.960 195.000 M235.720 203.200 C 235.720 204.410,235.795 204.905,235.887 204.300 C 235.978 203.695,235.978 202.705,235.887 202.100 C 235.795 201.495,235.720 201.990,235.720 203.200 M271.268 203.800 C 271.274 204.240,271.424 205.050,271.600 205.600 L 271.920 206.600 271.932 205.600 C 271.938 205.050,271.789 204.240,271.600 203.800 L 271.256 203.000 271.268 203.800 M236.272 208.600 C 236.399 209.700,236.569 210.675,236.651 210.767 C 236.932 211.082,236.720 208.599,236.380 207.600 C 236.151 206.926,236.116 207.251,236.272 208.600 M272.244 209.000 C 272.573 210.471,272.802 210.790,272.794 209.767 C 272.791 209.345,272.605 208.730,272.382 208.400 C 272.085 207.962,272.048 208.124,272.244 209.000 M236.868 212.000 C 236.888 213.039,237.518 214.746,237.532 213.800 C 237.538 213.360,237.389 212.640,237.200 212.200 C 236.989 211.710,236.861 211.632,236.868 212.000 M311.400 213.506 L 324.000 213.611 324.000 225.983 L 324.000 238.354 322.397 238.516 L 320.794 238.678 322.497 238.639 L 324.200 238.600 324.200 226.000 L 324.200 213.400 311.500 213.400 L 298.800 213.400 311.400 213.506 M237.668 215.600 C 237.688 216.639,238.318 218.346,238.332 217.400 C 238.338 216.960,238.189 216.240,238.000 215.800 C 237.789 215.310,237.661 215.232,237.668 215.600 M239.632 222.025 C 239.614 222.369,239.960 223.395,240.400 224.306 C 240.840 225.216,241.200 226.139,241.200 226.357 C 241.200 226.575,241.379 226.864,241.599 226.999 C 242.005 227.250,241.682 226.208,240.610 223.806 C 240.314 223.143,239.980 222.330,239.867 222.000 C 239.692 221.485,239.659 221.488,239.632 222.025 M278.791 223.588 C 279.257 224.241,279.842 224.902,280.091 225.056 C 280.341 225.211,280.041 224.676,279.425 223.868 C 278.088 222.115,277.584 221.892,278.791 223.588 M282.086 227.401 C 283.123 228.479,284.033 229.280,284.107 229.181 C 284.181 229.081,283.333 228.199,282.221 227.220 L 280.200 225.440 282.086 227.401 M285.903 230.700 C 286.421 231.195,287.060 231.595,287.322 231.588 C 287.585 231.581,287.440 231.376,287.000 231.132 C 286.560 230.888,285.921 230.488,285.580 230.244 C 285.240 230.000,285.385 230.205,285.903 230.700 M297.200 236.382 C 297.530 236.605,298.145 236.791,298.567 236.794 C 299.590 236.802,299.271 236.573,297.800 236.244 C 296.924 236.048,296.762 236.085,297.200 236.382 M300.000 237.194 C 300.330 237.411,301.035 237.591,301.567 237.594 C 302.851 237.602,302.525 237.375,300.800 237.058 C 299.815 236.877,299.578 236.918,300.000 237.194 M248.887 238.984 C 249.609 239.966,250.347 240.776,250.527 240.784 C 250.707 240.793,250.190 239.990,249.379 239.000 C 247.483 236.686,247.190 236.677,248.887 238.984 M305.700 238.287 C 306.305 238.378,307.295 238.378,307.900 238.287 C 308.505 238.195,308.010 238.120,306.800 238.120 C 305.590 238.120,305.095 238.195,305.700 238.287 M309.900 238.682 C 310.395 238.778,311.205 238.778,311.700 238.682 C 312.195 238.587,311.790 238.509,310.800 238.509 C 309.810 238.509,309.405 238.587,309.900 238.682 M315.100 239.093 C 316.035 239.177,317.565 239.177,318.500 239.093 C 319.435 239.009,318.670 238.940,316.800 238.940 C 314.930 238.940,314.165 239.009,315.100 239.093 M253.400 244.000 C 254.483 245.100,255.460 246.000,255.570 246.000 C 255.680 246.000,254.883 245.100,253.800 244.000 C 252.717 242.900,251.740 242.000,251.630 242.000 C 251.520 242.000,252.317 242.900,253.400 244.000 M258.905 248.647 C 259.031 248.851,259.991 249.632,261.037 250.384 C 262.084 251.135,262.809 251.539,262.650 251.280 C 262.490 251.022,261.531 250.240,260.518 249.543 C 259.505 248.847,258.780 248.443,258.905 248.647 M342.400 257.600 C 341.576 257.864,341.541 257.926,342.200 257.954 C 342.640 257.973,343.270 257.813,343.600 257.600 C 344.301 257.147,343.814 257.147,342.400 257.600 M276.800 258.382 C 277.130 258.605,277.745 258.791,278.167 258.794 C 279.190 258.802,278.871 258.573,277.400 258.244 C 276.524 258.048,276.362 258.085,276.800 258.382 M339.000 258.400 C 337.893 258.682,337.877 258.709,338.800 258.747 C 339.350 258.769,340.070 258.613,340.400 258.400 C 341.081 257.960,340.729 257.960,339.000 258.400 M335.800 259.200 C 334.693 259.482,334.677 259.509,335.600 259.547 C 336.150 259.569,336.870 259.413,337.200 259.200 C 337.881 258.760,337.529 258.760,335.800 259.200 M282.341 260.101 C 282.543 260.303,283.133 260.401,283.654 260.319 C 284.455 260.193,284.398 260.137,283.287 259.952 C 282.493 259.821,282.119 259.879,282.341 260.101 M332.000 260.000 C 330.616 260.291,330.614 260.295,331.800 260.341 C 332.460 260.367,333.270 260.213,333.600 260.000 C 334.266 259.570,334.045 259.570,332.000 260.000 M285.600 260.805 C 285.930 261.016,286.725 261.191,287.367 261.194 C 288.914 261.202,288.577 260.971,286.600 260.668 C 285.510 260.501,285.191 260.545,285.600 260.805 M327.600 260.800 L 325.800 261.080 327.400 261.134 C 328.280 261.163,329.270 261.013,329.600 260.800 C 329.930 260.587,330.020 260.437,329.800 260.466 C 329.580 260.496,328.590 260.646,327.600 260.800 M289.646 261.637 C 289.951 261.830,291.010 261.976,292.000 261.962 C 294.133 261.932,293.755 261.740,291.046 261.476 C 289.842 261.359,289.305 261.421,289.646 261.637 M322.400 261.600 L 320.200 261.870 322.200 261.907 C 323.300 261.927,324.560 261.789,325.000 261.600 C 325.902 261.212,325.562 261.212,322.400 261.600 M302.123 262.699 C 304.941 262.768,309.441 262.768,312.123 262.699 C 314.805 262.630,312.500 262.573,307.000 262.573 C 301.500 262.574,299.305 262.630,302.123 262.699 " stroke="none" fill="#a4a4a4" fill-rule="evenodd"></path><path id="path4" d="M305.300 127.496 C 306.565 127.575,308.635 127.575,309.900 127.496 C 311.165 127.416,310.130 127.351,307.600 127.351 C 305.070 127.351,304.035 127.416,305.300 127.496 M297.300 127.876 C 297.685 127.976,298.315 127.976,298.700 127.876 C 299.085 127.775,298.770 127.693,298.000 127.693 C 297.230 127.693,296.915 127.775,297.300 127.876 M317.100 127.882 C 317.595 127.978,318.405 127.978,318.900 127.882 C 319.395 127.787,318.990 127.709,318.000 127.709 C 317.010 127.709,316.605 127.787,317.100 127.882 M294.305 128.283 C 294.802 128.379,295.522 128.375,295.905 128.275 C 296.287 128.175,295.880 128.096,295.000 128.101 C 294.120 128.105,293.807 128.187,294.305 128.283 M320.705 128.283 C 321.202 128.379,321.922 128.375,322.305 128.275 C 322.687 128.175,322.280 128.096,321.400 128.101 C 320.520 128.105,320.207 128.187,320.705 128.283 M289.800 128.800 C 288.711 129.077,288.693 129.107,289.600 129.125 C 290.150 129.135,290.960 128.989,291.400 128.800 C 292.386 128.376,291.466 128.376,289.800 128.800 M325.400 128.800 C 326.060 128.968,327.050 129.105,327.600 129.105 C 328.492 129.105,328.470 129.072,327.400 128.800 C 326.740 128.632,325.750 128.495,325.200 128.495 C 324.308 128.495,324.330 128.528,325.400 128.800 M285.600 129.600 C 284.796 129.857,284.757 129.923,285.400 129.932 C 285.840 129.938,286.560 129.789,287.000 129.600 C 288.019 129.162,286.968 129.162,285.600 129.600 M50.100 129.900 C 54.665 129.964,62.135 129.964,66.700 129.900 C 71.265 129.835,67.530 129.783,58.400 129.783 C 49.270 129.783,45.535 129.835,50.100 129.900 M150.900 129.900 C 155.465 129.964,162.935 129.964,167.500 129.900 C 172.065 129.835,168.330 129.783,159.200 129.783 C 150.070 129.783,146.335 129.835,150.900 129.900 M75.394 182.600 C 75.394 211.640,75.442 223.461,75.500 208.869 C 75.558 194.277,75.558 170.517,75.500 156.069 C 75.442 141.621,75.394 153.560,75.394 182.600 M176.194 182.600 C 176.194 211.640,176.242 223.461,176.300 208.869 C 176.358 194.277,176.358 170.517,176.300 156.069 C 176.242 141.621,176.194 153.560,176.194 182.600 M282.400 130.400 C 281.576 130.664,281.541 130.726,282.200 130.754 C 282.640 130.773,283.270 130.613,283.600 130.400 C 284.301 129.947,283.814 129.947,282.400 130.400 M275.000 132.829 C 274.120 133.252,273.838 133.486,274.374 133.349 C 275.839 132.973,277.886 132.029,277.200 132.045 C 276.870 132.053,275.880 132.406,275.000 132.829 M357.500 138.799 C 357.881 139.227,358.000 142.910,358.000 154.280 L 358.000 169.200 356.138 169.200 C 354.777 169.200,353.889 168.923,352.838 168.171 L 351.400 167.142 352.800 168.387 C 354.029 169.479,354.444 169.617,356.200 169.516 L 358.200 169.400 358.305 154.353 C 358.402 140.381,358.359 139.268,357.705 138.772 C 357.105 138.318,357.074 138.322,357.500 138.799 M256.175 144.500 L 255.000 145.800 256.300 144.625 C 257.015 143.979,257.600 143.394,257.600 143.325 C 257.600 143.016,257.270 143.288,256.175 144.500 M251.491 149.171 C 250.283 150.476,248.898 152.141,248.413 152.871 C 247.711 153.929,247.802 153.874,248.863 152.600 C 249.595 151.720,251.077 150.055,252.155 148.900 C 253.234 147.745,254.019 146.800,253.901 146.800 C 253.783 146.800,252.698 147.867,251.491 149.171 M310.700 152.289 C 311.415 152.378,312.585 152.378,313.300 152.289 C 314.015 152.201,313.430 152.128,312.000 152.128 C 310.570 152.128,309.985 152.201,310.700 152.289 M316.900 152.676 C 317.285 152.776,317.915 152.776,318.300 152.676 C 318.685 152.575,318.370 152.493,317.600 152.493 C 316.830 152.493,316.515 152.575,316.900 152.676 M302.900 153.076 C 303.285 153.176,303.915 153.176,304.300 153.076 C 304.685 152.975,304.370 152.893,303.600 152.893 C 302.830 152.893,302.515 152.975,302.900 153.076 M319.700 153.076 C 320.085 153.176,320.715 153.176,321.100 153.076 C 321.485 152.975,321.170 152.893,320.400 152.893 C 319.630 152.893,319.315 152.975,319.700 153.076 M245.353 157.300 C 243.976 159.636,243.886 159.835,244.587 159.000 C 245.400 158.032,246.100 156.800,245.838 156.800 C 245.733 156.800,245.515 157.025,245.353 157.300 M289.600 157.636 C 288.936 158.179,288.869 158.315,289.400 158.040 C 290.705 157.366,291.428 156.812,291.000 156.815 C 290.780 156.817,290.150 157.186,289.600 157.636 M340.400 160.179 C 340.400 160.289,340.940 160.659,341.600 161.000 C 342.260 161.341,342.800 161.531,342.800 161.421 C 342.800 161.311,342.260 160.941,341.600 160.600 C 340.940 160.259,340.400 160.069,340.400 160.179 M281.586 163.900 L 279.400 166.200 281.700 164.014 C 282.965 162.811,284.000 161.776,284.000 161.714 C 284.000 161.417,283.618 161.763,281.586 163.900 M238.600 172.000 C 238.450 172.473,238.417 172.950,238.527 173.060 C 238.637 173.170,238.850 172.873,239.000 172.400 C 239.150 171.927,239.183 171.450,239.073 171.340 C 238.963 171.230,238.750 171.527,238.600 172.000 M237.000 178.400 C 236.848 179.091,236.814 179.747,236.924 179.857 C 237.034 179.967,237.248 179.491,237.400 178.800 C 237.552 178.109,237.586 177.453,237.476 177.343 C 237.366 177.233,237.152 177.709,237.000 178.400 M236.253 182.836 C 236.114 183.531,236.021 184.572,236.047 185.150 C 236.072 185.728,236.255 185.227,236.452 184.039 C 236.837 181.721,236.673 180.734,236.253 182.836 M270.909 187.600 C 270.909 188.590,270.987 188.995,271.082 188.500 C 271.178 188.005,271.178 187.195,271.082 186.700 C 270.987 186.205,270.909 186.610,270.909 187.600 M235.763 194.800 C 235.763 198.430,235.823 199.915,235.898 198.100 C 235.972 196.285,235.972 193.315,235.898 191.500 C 235.823 189.685,235.763 191.170,235.763 194.800 M298.578 200.800 C 298.578 207.730,298.633 210.565,298.699 207.100 C 298.766 203.635,298.766 197.965,298.699 194.500 C 298.633 191.035,298.578 193.870,298.578 200.800 M358.498 220.239 L 358.400 252.278 357.500 252.712 C 357.005 252.951,356.791 253.158,357.024 253.173 C 358.872 253.291,358.815 254.415,358.701 220.200 L 358.595 188.200 358.498 220.239 M270.548 194.800 C 270.548 197.110,270.614 198.055,270.695 196.900 C 270.776 195.745,270.776 193.855,270.695 192.700 C 270.614 191.545,270.548 192.490,270.548 194.800 M270.909 202.400 C 270.909 203.390,270.987 203.795,271.082 203.300 C 271.178 202.805,271.178 201.995,271.082 201.500 C 270.987 201.005,270.909 201.410,270.909 202.400 M236.040 205.233 C 236.062 205.985,236.230 207.050,236.413 207.600 C 236.629 208.246,236.666 207.820,236.519 206.400 C 236.259 203.883,235.981 203.207,236.040 205.233 M236.868 210.600 C 236.862 211.040,237.011 211.760,237.200 212.200 C 237.638 213.219,237.638 212.168,237.200 210.800 C 236.943 209.996,236.877 209.957,236.868 210.600 M324.200 225.938 L 324.200 238.600 322.000 238.835 L 319.800 239.070 321.820 239.135 C 322.945 239.171,324.053 238.987,324.320 238.720 C 324.862 238.178,325.036 213.793,324.500 213.462 C 324.335 213.360,324.200 218.974,324.200 225.938 M277.200 221.938 C 277.200 222.124,277.588 222.619,278.062 223.038 L 278.924 223.800 278.216 222.700 C 277.486 221.566,277.200 221.351,277.200 221.938 M279.894 225.400 C 280.572 226.280,281.723 227.540,282.453 228.200 C 283.224 228.897,282.961 228.477,281.827 227.200 C 279.100 224.129,278.452 223.526,279.894 225.400 M244.212 231.600 C 244.996 233.027,248.422 237.967,248.784 238.190 C 249.002 238.325,248.166 236.942,246.927 235.117 C 244.766 231.936,243.486 230.278,244.212 231.600 M135.502 243.300 C 135.697 258.730,135.829 260.143,135.914 247.700 C 135.962 240.825,135.865 235.200,135.700 235.200 C 135.535 235.199,135.446 238.844,135.502 243.300 M235.894 235.526 C 236.264 235.761,236.416 238.893,236.500 248.020 L 236.612 260.200 236.706 247.700 C 236.794 236.024,236.754 235.200,236.100 235.206 C 235.608 235.210,235.546 235.305,235.894 235.526 M302.600 238.000 C 303.040 238.189,303.760 238.344,304.200 238.344 L 305.000 238.344 304.200 238.000 C 303.760 237.811,303.040 237.656,302.600 237.656 L 301.800 237.656 302.600 238.000 M308.200 238.814 C 309.784 239.150,313.888 239.335,313.567 239.055 C 313.475 238.975,311.870 238.812,310.000 238.692 C 307.627 238.540,307.083 238.577,308.200 238.814 M250.696 240.600 C 251.597 241.700,253.200 243.410,254.258 244.400 C 255.510 245.570,255.216 245.150,253.418 243.200 C 249.530 238.982,248.804 238.288,250.696 240.600 M256.422 246.300 C 256.434 246.465,257.019 247.038,257.722 247.574 L 259.000 248.549 257.825 247.274 C 256.603 245.949,256.385 245.797,256.422 246.300 M261.982 250.578 C 262.290 250.949,263.095 251.534,263.771 251.877 C 265.295 252.652,265.052 252.367,263.000 250.974 C 262.132 250.385,261.674 250.207,261.982 250.578 M266.000 253.164 C 266.550 253.614,267.180 253.983,267.400 253.985 C 267.828 253.988,267.105 253.434,265.800 252.760 C 265.269 252.485,265.336 252.621,266.000 253.164 M269.411 254.934 C 270.296 255.532,271.600 256.058,271.600 255.817 C 271.600 255.637,269.198 254.400,268.850 254.400 C 268.724 254.400,268.977 254.640,269.411 254.934 M347.200 256.000 C 346.376 256.264,346.341 256.326,347.000 256.354 C 347.440 256.373,348.070 256.213,348.400 256.000 C 349.101 255.547,348.614 255.547,347.200 256.000 M342.800 257.218 C 342.362 257.515,342.524 257.552,343.400 257.356 C 344.871 257.027,345.190 256.798,344.167 256.806 C 343.745 256.809,343.130 256.995,342.800 257.218 M332.800 259.618 C 332.362 259.915,332.524 259.952,333.400 259.756 C 334.871 259.427,335.190 259.198,334.167 259.206 C 333.745 259.209,333.130 259.395,332.800 259.618 M65.500 260.300 C 78.315 260.359,99.285 260.359,112.100 260.300 C 124.915 260.241,114.430 260.193,88.800 260.193 C 63.170 260.193,52.685 260.241,65.500 260.300 M166.331 260.300 C 179.163 260.359,200.043 260.359,212.731 260.300 C 225.419 260.241,214.920 260.193,189.400 260.193 C 163.880 260.193,153.499 260.241,166.331 260.300 M328.600 260.400 C 327.581 260.838,328.632 260.838,330.000 260.400 C 330.804 260.143,330.843 260.077,330.200 260.068 C 329.760 260.062,329.040 260.211,328.600 260.400 M289.200 261.200 C 289.750 261.376,290.560 261.520,291.000 261.520 C 291.633 261.520,291.592 261.454,290.800 261.200 C 290.250 261.024,289.440 260.880,289.000 260.880 C 288.367 260.880,288.408 260.946,289.200 261.200 M323.400 261.200 C 322.322 261.474,322.302 261.506,323.200 261.513 C 323.750 261.517,324.650 261.376,325.200 261.200 C 326.544 260.769,325.092 260.769,323.400 261.200 M295.200 262.020 C 296.190 262.197,297.540 262.332,298.200 262.320 C 299.085 262.305,298.928 262.216,297.600 261.980 C 296.610 261.803,295.260 261.668,294.600 261.680 C 293.715 261.695,293.872 261.784,295.200 262.020 M316.000 262.000 C 314.363 262.254,314.327 262.283,315.600 262.310 C 316.370 262.327,317.810 262.197,318.800 262.020 C 321.197 261.594,318.728 261.576,316.000 262.000 " stroke="none" fill="#acacac" fill-rule="evenodd"></path></g></svg>