<svg id="svg" version="1.1" xmlns="http://www.w3.org/2000/svg" xmlns:xlink="http://www.w3.org/1999/xlink" width="400" height="400" viewBox="0, 0, 400,400"><g id="svgg"><path id="path0" d="M272.719 116.214 C 272.583 116.350,270.970 116.624,269.136 116.822 C 267.301 117.020,264.990 117.359,264.000 117.574 C 263.010 117.790,261.129 118.162,259.819 118.401 C 258.509 118.641,257.249 118.989,257.019 119.176 C 256.111 119.911,253.544 121.200,252.988 121.200 C 252.665 121.200,252.400 121.380,252.400 121.600 C 252.400 121.820,252.164 122.000,251.875 122.000 C 251.587 122.000,250.964 122.360,250.492 122.800 C 250.020 123.240,249.468 123.600,249.266 123.600 C 249.063 123.600,248.657 123.890,248.363 124.245 C 248.069 124.599,247.501 125.010,247.102 125.158 C 246.137 125.515,238.400 133.226,238.400 133.830 C 238.400 134.090,238.121 134.534,237.780 134.816 C 237.149 135.340,235.932 137.790,235.403 139.600 C 235.242 140.150,234.870 141.140,234.576 141.800 C 232.032 147.509,231.610 156.013,231.605 201.657 C 231.599 253.924,231.583 253.755,237.448 265.866 C 238.211 267.442,239.098 268.949,239.418 269.215 C 239.738 269.481,240.000 269.905,240.000 270.158 C 240.000 270.738,246.466 277.200,247.046 277.200 C 247.283 277.200,247.802 277.560,248.200 278.000 C 248.598 278.440,249.144 278.800,249.413 278.800 C 249.682 278.800,250.119 279.062,250.385 279.382 C 251.115 280.261,256.383 282.721,258.200 283.031 C 259.080 283.181,259.980 283.440,260.200 283.605 C 261.847 284.842,278.330 285.484,279.038 284.339 C 279.153 284.153,279.856 284.000,280.600 284.000 C 281.344 284.000,282.064 283.820,282.200 283.600 C 282.336 283.380,282.806 283.200,283.246 283.200 C 284.299 283.200,287.333 281.804,287.984 281.020 C 288.266 280.679,288.659 280.400,288.856 280.400 C 289.324 280.400,294.400 275.324,294.400 274.856 C 294.400 274.394,297.491 271.200,297.938 271.200 C 298.504 271.200,299.411 272.503,300.166 274.400 C 300.560 275.390,301.044 276.513,301.241 276.895 C 301.438 277.277,301.600 277.941,301.600 278.371 C 301.600 278.801,301.780 279.264,302.000 279.400 C 302.220 279.536,302.400 280.059,302.400 280.562 C 302.400 282.754,302.822 282.821,315.838 282.706 L 327.800 282.600 327.902 239.500 L 328.004 196.400 304.602 196.400 L 281.200 196.400 281.200 207.356 L 281.200 218.313 284.145 218.461 C 288.745 218.694,288.400 217.399,288.400 234.425 C 288.400 243.812,288.255 249.242,288.000 249.400 C 287.780 249.536,287.600 250.616,287.600 251.800 C 287.600 252.984,287.420 254.064,287.200 254.200 C 286.980 254.336,286.800 254.822,286.800 255.279 C 286.800 257.316,282.821 260.381,280.164 260.391 C 277.655 260.400,274.000 257.986,274.000 256.320 C 274.000 256.012,273.845 255.589,273.656 255.380 C 272.380 253.970,271.637 157.895,272.835 149.316 C 273.498 144.576,275.554 141.200,277.779 141.200 C 278.253 141.200,278.856 140.984,279.120 140.720 C 279.493 140.347,279.707 140.347,280.080 140.720 C 280.344 140.984,280.912 141.200,281.342 141.200 C 283.453 141.200,286.000 144.604,286.000 147.425 C 286.000 148.155,286.180 148.864,286.400 149.000 C 286.654 149.157,286.800 154.337,286.800 163.224 L 286.800 177.200 307.400 177.200 L 328.000 177.200 328.000 170.424 C 328.000 166.337,327.841 163.549,327.600 163.400 C 327.368 163.257,327.200 161.070,327.200 158.200 C 327.200 155.330,327.032 153.143,326.800 153.000 C 326.580 152.864,326.400 151.773,326.400 150.576 C 326.400 149.379,326.220 148.400,326.000 148.400 C 325.780 148.400,325.600 147.601,325.600 146.624 C 325.600 145.647,325.420 144.736,325.200 144.600 C 324.980 144.464,324.800 143.924,324.800 143.400 C 324.800 142.876,324.620 142.336,324.400 142.200 C 324.180 142.064,324.000 141.629,324.000 141.233 C 324.000 140.600,321.741 135.730,321.201 135.200 C 321.089 135.090,320.492 134.254,319.874 133.342 C 318.666 131.561,313.061 126.000,312.474 126.000 C 312.279 126.000,311.554 125.460,310.863 124.800 C 310.172 124.140,309.336 123.600,309.004 123.600 C 308.672 123.600,308.400 123.420,308.400 123.200 C 308.400 122.980,308.040 122.800,307.600 122.800 C 307.160 122.800,306.800 122.620,306.800 122.400 C 306.800 122.180,306.455 122.000,306.033 122.000 C 305.612 122.000,305.207 121.865,305.133 121.700 C 304.915 121.209,301.584 119.600,300.786 119.600 C 300.380 119.600,299.946 119.437,299.823 119.237 C 299.700 119.038,298.700 118.751,297.600 118.600 C 296.500 118.449,295.500 118.162,295.377 117.963 C 295.254 117.763,294.389 117.600,293.456 117.600 C 292.523 117.600,291.589 117.437,291.380 117.239 C 290.584 116.482,273.395 115.538,272.719 116.214 M72.186 119.296 C 72.081 119.573,72.041 156.430,72.097 201.200 L 72.200 282.600 105.100 282.702 L 138.000 282.805 138.000 267.419 L 138.000 252.034 126.271 251.917 C 115.931 251.814,114.462 251.721,113.872 251.130 C 113.252 250.509,113.195 245.580,113.101 184.730 L 113.000 119.000 92.689 118.896 C 76.653 118.814,72.337 118.899,72.186 119.296 M152.585 119.300 C 152.480 119.575,152.441 156.430,152.497 201.200 L 152.600 282.600 185.500 282.702 L 218.400 282.805 218.400 267.419 L 218.400 252.034 206.671 251.917 C 196.323 251.814,194.863 251.721,194.271 251.129 C 193.648 250.506,193.600 245.699,193.600 184.629 L 193.600 118.800 173.187 118.800 C 157.225 118.800,152.733 118.909,152.585 119.300 " stroke="none" fill="#fcfcfc" fill-rule="evenodd"></path><path id="path1" d="M270.600 115.365 C 264.541 116.159,258.733 117.374,260.282 117.524 C 260.986 117.592,261.910 117.462,262.334 117.235 C 262.758 117.008,264.842 116.701,266.966 116.551 C 269.089 116.402,270.921 116.127,271.037 115.940 C 271.316 115.489,286.660 115.500,287.526 115.951 C 287.897 116.144,289.640 116.401,291.400 116.523 C 293.548 116.671,294.074 116.636,293.000 116.418 C 292.120 116.240,290.500 115.896,289.400 115.654 C 286.170 114.943,275.113 114.774,270.600 115.365 M258.000 117.880 C 256.398 118.457,252.358 120.491,252.510 120.643 C 252.693 120.826,258.800 118.022,258.800 117.756 C 258.800 117.670,258.755 117.614,258.700 117.632 C 258.645 117.649,258.330 117.761,258.000 117.880 M297.600 117.763 C 297.600 117.852,298.635 118.240,299.900 118.624 C 302.291 119.349,305.302 120.780,305.533 121.300 C 305.607 121.465,306.012 121.600,306.433 121.600 C 306.855 121.600,307.200 121.759,307.200 121.953 C 307.200 122.148,307.515 122.418,307.900 122.554 C 308.285 122.689,308.867 122.919,309.193 123.065 C 310.412 123.608,308.647 122.193,307.200 121.468 C 306.430 121.082,305.260 120.444,304.600 120.051 C 302.788 118.970,297.600 117.274,297.600 117.763 M71.200 200.802 L 71.200 283.605 104.900 283.502 L 138.600 283.400 138.600 267.200 L 138.600 251.000 126.685 250.800 C 116.680 250.632,114.709 250.504,114.391 250.000 C 114.157 249.629,114.010 224.355,114.006 183.700 L 114.000 118.000 92.600 118.000 L 71.200 118.000 71.200 200.802 M151.785 118.500 C 151.680 118.775,151.641 155.990,151.697 201.200 L 151.800 283.400 185.400 283.400 L 219.000 283.400 219.000 267.200 L 219.000 251.000 207.033 250.800 C 197.960 250.648,195.026 250.479,194.900 250.100 C 194.808 249.825,194.540 249.600,194.305 249.600 C 194.069 249.600,194.199 249.957,194.595 250.394 C 195.276 251.147,195.923 251.194,206.957 251.294 L 218.600 251.400 218.705 267.302 L 218.809 283.205 185.505 283.102 L 152.200 283.000 152.099 200.908 L 151.998 118.816 152.899 118.595 C 153.395 118.474,162.845 118.425,173.900 118.487 C 184.955 118.549,194.000 118.465,194.000 118.300 C 194.000 117.739,151.999 117.938,151.785 118.500 M113.501 184.170 C 113.594 244.269,113.657 249.800,114.258 250.464 C 114.857 251.126,115.906 251.197,126.557 251.294 L 138.200 251.400 138.200 267.200 L 138.200 283.000 105.000 283.000 L 71.800 283.000 71.697 201.200 C 71.641 156.210,71.681 119.173,71.786 118.896 C 71.937 118.499,76.333 118.415,92.689 118.496 L 113.400 118.600 113.501 184.170 M250.600 121.600 C 250.202 122.040,249.662 122.400,249.400 122.400 C 249.138 122.400,248.598 122.760,248.200 123.200 C 247.802 123.640,247.234 124.000,246.938 124.000 C 246.642 124.000,246.400 124.186,246.400 124.414 C 246.400 124.809,247.918 124.220,248.400 123.639 C 248.510 123.506,249.365 122.879,250.300 122.244 C 251.235 121.610,252.000 121.026,252.000 120.946 C 252.000 120.538,251.240 120.893,250.600 121.600 M240.795 129.205 C 239.663 130.308,238.796 131.358,238.868 131.538 C 238.941 131.719,239.997 130.817,241.216 129.534 C 243.928 126.678,243.629 126.444,240.795 129.205 M317.266 129.500 C 320.461 132.779,323.767 137.991,324.942 141.600 C 325.080 142.025,325.146 141.975,325.168 141.430 C 325.207 140.492,322.446 134.800,321.952 134.800 C 321.759 134.800,321.600 134.480,321.600 134.088 C 321.600 133.697,321.240 133.117,320.800 132.800 C 320.360 132.483,320.000 132.025,320.000 131.782 C 320.000 131.230,315.982 127.200,315.431 127.200 C 315.208 127.200,316.033 128.235,317.266 129.500 M283.300 143.038 C 283.685 143.492,284.000 144.074,284.000 144.331 C 284.000 144.589,284.186 144.800,284.414 144.800 C 284.968 144.800,284.274 143.513,283.322 142.774 C 282.631 142.238,282.630 142.249,283.300 143.038 M232.649 144.215 C 232.512 144.573,232.400 145.571,232.400 146.433 C 232.400 147.295,232.220 148.000,232.000 148.000 C 231.763 148.000,231.600 149.467,231.600 151.600 C 231.600 153.733,231.437 155.200,231.200 155.200 C 230.936 155.200,230.800 170.925,230.800 201.576 C 230.800 232.063,230.937 248.037,231.200 248.200 C 231.420 248.336,231.600 249.787,231.600 251.424 C 231.600 253.141,231.769 254.400,232.000 254.400 C 232.220 254.400,232.400 255.019,232.400 255.776 C 232.400 256.533,232.569 257.257,232.776 257.385 C 233.210 257.654,232.874 254.963,232.344 253.926 C 232.155 253.556,232.000 252.081,232.000 250.650 C 232.000 249.218,231.820 247.936,231.600 247.800 C 231.074 247.475,231.045 155.919,231.571 155.380 C 231.775 155.171,232.027 153.560,232.130 151.800 C 232.234 150.040,232.507 147.525,232.737 146.211 C 233.155 143.822,233.119 142.992,232.649 144.215 M274.303 145.316 C 273.938 146.022,273.521 147.680,273.375 149.000 C 272.917 153.143,272.747 248.907,273.197 249.357 C 273.419 249.579,273.600 250.858,273.600 252.200 C 273.600 253.542,273.763 254.811,273.961 255.020 C 274.160 255.229,274.409 255.760,274.515 256.200 C 274.663 256.817,274.718 256.753,274.754 255.924 C 274.779 255.332,274.620 254.736,274.400 254.600 C 274.180 254.464,274.000 253.204,274.000 251.800 C 274.000 250.396,273.820 249.136,273.600 249.000 C 273.337 248.837,273.200 232.204,273.200 200.400 C 273.200 168.596,273.337 151.963,273.600 151.800 C 273.820 151.664,274.000 150.511,274.000 149.238 C 274.000 147.914,274.275 146.372,274.642 145.637 C 274.995 144.929,275.212 144.278,275.124 144.191 C 275.037 144.103,274.667 144.609,274.303 145.316 M326.068 145.600 C 326.062 146.150,326.211 146.960,326.400 147.400 L 326.744 148.200 326.732 147.400 C 326.726 146.960,326.576 146.150,326.400 145.600 L 326.080 144.600 326.068 145.600 M284.834 145.600 C 284.846 145.930,285.011 146.560,285.200 147.000 L 285.544 147.800 285.566 147.000 C 285.578 146.560,285.413 145.930,285.200 145.600 C 284.855 145.067,284.815 145.067,284.834 145.600 M326.895 149.400 C 326.895 150.060,327.032 151.140,327.200 151.800 L 327.505 153.000 327.505 151.800 C 327.505 151.140,327.368 150.060,327.200 149.400 L 326.895 148.200 326.895 149.400 M285.942 163.533 C 286.042 173.676,286.216 177.886,286.542 178.096 C 286.794 178.259,296.450 178.349,308.000 178.296 L 329.000 178.200 329.110 171.214 C 329.170 167.372,329.086 163.952,328.924 163.614 C 328.761 163.276,328.409 160.750,328.141 158.000 L 327.655 153.000 327.928 158.000 C 328.077 160.750,328.200 166.240,328.200 170.200 L 328.200 177.400 307.400 177.400 L 286.600 177.400 286.400 163.533 C 286.290 155.906,286.110 149.576,286.000 149.466 C 285.890 149.356,285.864 155.687,285.942 163.533 M280.445 195.745 C 280.119 196.138,280.018 199.571,280.094 207.649 L 280.200 219.000 283.169 219.119 C 287.975 219.311,287.703 218.308,287.538 235.200 C 287.462 243.010,287.519 248.500,287.665 247.400 C 287.811 246.300,287.946 239.809,287.965 232.976 C 288.007 218.208,288.270 219.090,283.733 218.800 L 280.600 218.600 280.600 207.400 L 280.600 196.200 304.502 196.097 L 328.404 195.994 328.302 239.497 L 328.200 283.000 315.734 283.106 C 301.153 283.229,302.711 283.803,300.635 277.542 C 299.016 272.658,298.657 271.993,297.651 272.012 C 297.064 272.023,297.066 272.063,297.673 272.417 C 298.464 272.878,299.600 275.014,299.600 276.038 C 299.600 276.431,299.780 276.864,300.000 277.000 C 300.220 277.136,300.400 277.676,300.400 278.200 C 300.400 278.724,300.580 279.264,300.800 279.400 C 301.020 279.536,301.200 279.969,301.200 280.362 C 301.200 280.755,301.484 281.647,301.832 282.344 L 302.464 283.611 315.732 283.505 L 329.000 283.400 329.000 239.400 L 329.000 195.400 304.952 195.297 C 284.906 195.211,280.827 195.286,280.445 195.745 M286.854 251.400 C 286.819 251.840,286.689 252.650,286.567 253.200 C 286.375 254.063,286.407 254.103,286.798 253.490 C 287.047 253.099,287.177 252.289,287.086 251.690 C 286.978 250.979,286.897 250.879,286.854 251.400 M285.434 256.100 L 284.808 257.400 285.604 256.456 C 286.042 255.936,286.400 255.351,286.400 255.156 C 286.400 254.472,286.054 254.810,285.434 256.100 M277.862 259.700 C 278.108 260.099,281.899 260.087,282.147 259.686 C 282.253 259.514,281.291 259.379,280.009 259.386 C 278.727 259.394,277.761 259.535,277.862 259.700 M241.200 273.030 C 241.200 273.489,241.622 273.924,244.300 276.230 C 245.235 277.035,246.000 277.564,246.000 277.407 C 246.000 277.250,245.415 276.599,244.700 275.962 C 243.985 275.324,242.905 274.307,242.300 273.701 C 241.696 273.096,241.201 272.794,241.200 273.030 M246.400 277.986 C 246.400 278.214,246.648 278.400,246.951 278.400 C 247.254 278.400,247.723 278.666,247.993 278.992 C 248.263 279.317,249.050 279.855,249.742 280.187 L 251.000 280.792 250.000 279.996 C 249.450 279.558,248.809 279.045,248.575 278.854 C 247.599 278.060,246.400 277.581,246.400 277.986 M291.000 279.259 C 290.120 280.134,288.888 281.123,288.263 281.455 C 287.637 281.787,287.215 282.148,287.324 282.257 C 287.433 282.366,287.932 282.218,288.432 281.928 C 289.653 281.220,293.506 277.601,293.000 277.637 C 292.780 277.653,291.880 278.383,291.000 279.259 M251.811 281.334 C 252.696 281.932,254.000 282.458,254.000 282.217 C 254.000 282.037,251.598 280.800,251.250 280.800 C 251.124 280.800,251.377 281.040,251.811 281.334 M285.070 283.079 C 284.448 283.405,284.026 283.760,284.133 283.866 C 284.342 284.076,286.800 282.900,286.800 282.590 C 286.800 282.292,286.294 282.435,285.070 283.079 M261.800 285.200 C 263.676 285.677,264.739 285.677,264.000 285.200 C 263.670 284.987,262.770 284.831,262.000 284.853 L 260.600 284.895 261.800 285.200 M279.045 285.128 C 278.933 285.308,279.373 285.377,280.021 285.282 C 280.670 285.187,281.200 285.040,281.200 284.955 C 281.200 284.650,279.243 284.807,279.045 285.128 M268.279 286.056 C 270.302 286.227,273.362 286.229,275.079 286.062 C 277.647 285.813,276.995 285.758,271.400 285.753 C 265.315 285.747,264.987 285.779,268.279 286.056 " stroke="none" fill="#444444" fill-rule="evenodd"></path><path id="path2" d="M271.000 116.000 C 270.864 116.220,271.113 116.400,271.553 116.400 C 271.993 116.400,272.464 116.220,272.600 116.000 C 272.736 115.780,272.487 115.600,272.047 115.600 C 271.607 115.600,271.136 115.780,271.000 116.000 M264.200 116.868 C 263.100 117.066,261.511 117.332,260.670 117.459 C 259.828 117.586,257.707 118.390,255.957 119.245 C 254.207 120.100,252.686 120.800,252.578 120.800 C 252.469 120.800,251.465 121.430,250.345 122.200 C 249.226 122.970,248.566 123.600,248.880 123.600 C 249.193 123.600,249.798 123.283,250.225 122.896 C 251.146 122.059,257.583 118.792,258.300 118.797 C 258.575 118.799,258.800 118.620,258.800 118.400 C 258.800 118.180,259.599 118.000,260.576 118.000 C 261.553 118.000,262.464 117.820,262.600 117.600 C 262.736 117.380,263.512 117.197,264.324 117.194 C 265.136 117.191,266.070 117.013,266.400 116.800 C 267.076 116.363,266.981 116.366,264.200 116.868 M291.457 116.893 C 291.562 117.062,292.447 117.200,293.424 117.200 C 294.401 117.200,295.200 117.380,295.200 117.600 C 295.200 117.820,295.729 118.000,296.376 118.000 C 297.023 118.000,297.664 118.180,297.800 118.400 C 297.936 118.620,298.476 118.800,299.000 118.800 C 299.524 118.800,300.064 118.980,300.200 119.200 C 300.336 119.420,300.791 119.600,301.211 119.600 C 301.632 119.600,302.656 119.991,303.488 120.470 C 304.320 120.948,306.080 121.897,307.400 122.579 C 311.526 124.710,319.394 131.473,320.456 133.800 C 320.950 134.884,322.800 137.400,322.800 136.988 C 322.800 135.329,316.604 128.377,312.500 125.432 C 311.345 124.603,310.400 123.762,310.400 123.562 C 310.400 123.363,310.166 123.200,309.880 123.200 C 309.144 123.200,307.207 122.259,307.203 121.900 C 307.201 121.735,306.855 121.600,306.433 121.600 C 306.012 121.600,305.607 121.465,305.533 121.300 C 305.284 120.738,302.207 119.340,299.200 118.421 C 297.550 117.917,295.840 117.356,295.400 117.175 C 294.320 116.730,291.219 116.508,291.457 116.893 M71.786 118.896 C 71.681 119.173,71.641 156.210,71.697 201.200 L 71.800 283.000 105.000 283.000 L 138.200 283.000 138.200 267.200 L 138.200 251.400 126.557 251.294 C 115.906 251.197,114.857 251.126,114.258 250.464 C 113.657 249.800,113.594 244.269,113.501 184.170 L 113.400 118.600 92.689 118.496 C 76.333 118.415,71.937 118.499,71.786 118.896 M173.300 118.698 L 193.600 118.807 193.600 184.542 C 193.600 247.278,193.633 250.306,194.318 250.926 C 195.081 251.616,218.961 252.182,218.539 251.500 C 218.436 251.335,213.171 251.200,206.838 251.200 C 196.199 251.200,195.274 251.145,194.663 250.470 C 194.055 249.798,193.994 244.487,193.901 184.170 L 193.800 118.600 173.400 118.595 L 153.000 118.589 173.300 118.698 M113.200 184.469 C 113.200 245.012,113.252 250.194,113.862 250.869 C 114.475 251.546,115.398 251.600,126.262 251.600 L 138.000 251.600 138.000 267.200 L 138.000 282.800 105.000 282.800 L 72.000 282.800 72.000 200.800 L 72.000 118.800 92.600 118.800 L 113.200 118.800 113.200 184.469 M152.199 200.900 L 152.200 283.000 185.500 283.102 C 203.815 283.159,218.800 283.069,218.800 282.902 C 218.800 282.736,203.860 282.647,185.601 282.705 L 152.402 282.809 152.300 200.805 L 152.197 118.800 152.199 200.900 M247.028 124.472 C 244.814 125.757,238.660 132.001,237.571 134.068 C 237.301 134.581,236.972 135.090,236.840 135.200 C 236.418 135.551,234.800 138.692,234.800 139.159 C 234.800 139.406,234.453 140.372,234.030 141.304 C 233.081 143.392,232.507 146.628,233.156 146.227 C 233.400 146.076,233.600 145.153,233.600 144.176 C 233.600 143.199,233.780 142.400,234.000 142.400 C 234.220 142.400,234.400 142.051,234.400 141.624 C 234.400 141.197,234.580 140.736,234.800 140.600 C 235.020 140.464,235.200 140.039,235.200 139.656 C 235.200 138.781,236.099 136.807,236.500 136.803 C 236.665 136.801,236.800 136.610,236.800 136.378 C 236.800 134.776,243.757 127.199,247.483 124.742 C 248.682 123.951,248.309 123.729,247.028 124.472 M323.075 138.300 C 323.212 138.685,323.458 139.180,323.621 139.400 C 323.784 139.620,324.136 140.610,324.403 141.600 C 324.670 142.590,325.036 143.760,325.217 144.200 C 325.398 144.640,325.630 145.540,325.734 146.200 C 325.838 146.860,326.198 149.020,326.534 151.000 C 327.400 156.105,328.001 164.420,328.001 171.300 L 328.000 177.200 307.400 177.200 L 286.800 177.200 286.800 163.424 C 286.800 154.671,286.654 149.557,286.400 149.400 C 286.180 149.264,286.000 148.449,286.000 147.589 C 286.000 143.621,282.002 140.159,278.593 141.175 C 277.532 141.492,277.637 141.535,279.538 141.566 C 285.306 141.658,285.941 143.718,286.330 163.600 L 286.600 177.400 307.400 177.400 L 328.200 177.400 328.336 172.600 C 328.499 166.830,327.743 155.102,326.905 150.400 C 326.572 148.530,326.210 146.370,326.102 145.600 C 325.994 144.830,325.767 144.020,325.599 143.800 C 325.430 143.580,325.159 142.777,324.996 142.016 C 324.833 141.255,324.344 139.950,323.909 139.116 C 323.082 137.528,322.649 137.105,323.075 138.300 M275.845 142.500 C 274.204 143.978,273.241 146.193,272.980 149.091 C 272.803 151.059,272.853 151.636,273.162 151.200 C 273.396 150.870,273.591 149.665,273.594 148.523 C 273.601 146.252,274.614 144.064,276.382 142.500 C 276.942 142.006,277.275 141.601,277.122 141.600 C 276.970 141.600,276.395 142.005,275.845 142.500 M232.300 148.533 C 231.806 149.740,231.923 151.574,232.438 150.690 C 232.665 150.299,232.795 149.489,232.726 148.890 C 232.621 147.980,232.551 147.921,232.300 148.533 M272.594 200.400 C 272.594 227.130,272.642 238.065,272.700 224.700 C 272.758 211.335,272.758 189.465,272.700 176.100 C 272.642 162.735,272.594 173.670,272.594 200.400 M231.500 155.430 C 231.335 155.597,231.200 156.639,231.200 157.747 C 231.200 159.165,231.325 159.635,231.624 159.336 C 231.858 159.102,231.993 158.060,231.924 157.019 C 231.856 155.978,231.665 155.262,231.500 155.430 M280.581 196.506 C 280.196 197.508,280.594 218.532,281.000 218.667 C 281.262 218.755,281.361 214.939,281.288 207.600 L 281.176 196.400 304.588 196.400 L 328.000 196.400 328.000 239.600 L 328.000 282.800 315.680 282.800 C 302.667 282.800,302.400 282.763,302.400 280.944 C 302.400 280.451,302.220 279.936,302.000 279.800 C 301.780 279.664,301.600 279.124,301.600 278.600 C 301.600 278.076,301.420 277.536,301.200 277.400 C 300.980 277.264,300.800 276.831,300.800 276.438 C 300.800 275.684,299.614 273.053,299.380 273.287 C 299.094 273.572,302.360 282.529,302.868 282.854 C 303.161 283.041,308.980 283.151,315.800 283.097 L 328.200 283.000 328.302 239.500 L 328.404 196.000 304.589 196.000 C 285.757 196.000,280.734 196.106,280.581 196.506 M287.200 219.600 C 288.760 221.160,288.144 249.250,286.427 254.873 C 285.669 257.357,282.362 260.000,280.012 260.000 C 277.973 260.000,274.400 257.387,274.400 255.896 C 274.400 255.539,274.220 255.136,274.000 255.000 C 273.780 254.864,273.600 253.604,273.600 252.200 C 273.600 250.703,273.409 249.529,273.138 249.362 C 272.568 249.010,273.030 254.388,273.621 254.980 C 273.829 255.189,274.000 255.667,274.000 256.043 C 274.000 257.493,277.916 260.400,279.870 260.400 C 282.622 260.400,286.800 257.120,286.800 254.960 C 286.800 254.458,286.980 253.936,287.200 253.800 C 287.420 253.664,287.600 252.584,287.600 251.400 C 287.600 250.216,287.780 249.136,288.000 249.000 C 288.255 248.842,288.395 243.576,288.387 234.476 C 288.374 219.938,288.263 218.800,286.856 218.800 C 286.605 218.800,286.760 219.160,287.200 219.600 M231.200 245.553 C 231.200 246.653,231.380 247.664,231.600 247.800 C 231.846 247.952,232.000 247.279,232.000 246.047 C 232.000 244.947,231.820 243.936,231.600 243.800 C 231.354 243.648,231.200 244.321,231.200 245.553 M232.012 252.200 C 232.012 252.860,232.187 253.670,232.400 254.000 C 232.697 254.460,232.788 254.321,232.788 253.400 C 232.788 252.740,232.613 251.930,232.400 251.600 C 232.103 251.140,232.012 251.279,232.012 252.200 M232.800 255.762 C 232.800 257.388,237.994 269.419,238.299 268.502 C 238.365 268.306,237.694 266.738,236.809 265.018 C 235.924 263.297,235.200 261.644,235.200 261.345 C 235.200 261.045,235.020 260.800,234.800 260.800 C 234.580 260.800,234.400 260.361,234.400 259.824 C 234.400 259.287,234.220 258.736,234.000 258.600 C 233.780 258.464,233.600 257.744,233.600 257.000 C 233.600 256.256,233.420 255.536,233.200 255.400 C 232.980 255.264,232.800 255.427,232.800 255.762 M238.800 268.987 C 238.800 269.742,241.345 273.018,243.122 274.550 C 243.409 274.798,244.237 275.564,244.963 276.254 C 246.284 277.511,247.662 278.402,248.274 278.397 C 248.453 278.396,248.137 278.081,247.570 277.697 C 245.211 276.100,242.216 273.266,240.564 271.067 C 239.594 269.777,238.800 268.840,238.800 268.987 M296.128 273.081 C 291.509 278.766,285.370 283.600,282.767 283.600 C 282.371 283.600,281.936 283.780,281.800 284.000 C 281.664 284.220,280.933 284.400,280.176 284.400 C 279.419 284.400,278.800 284.580,278.800 284.800 C 278.800 285.052,276.141 285.200,271.624 285.200 C 267.271 285.200,264.350 285.043,264.200 284.800 C 264.064 284.580,263.153 284.400,262.176 284.400 C 261.199 284.400,260.400 284.220,260.400 284.000 C 260.400 283.780,259.860 283.600,259.200 283.600 C 258.540 283.600,258.000 283.420,258.000 283.200 C 258.000 282.980,257.460 282.800,256.800 282.800 C 256.140 282.800,255.600 282.620,255.600 282.400 C 255.600 282.180,255.240 282.000,254.800 282.000 C 254.360 282.000,254.000 281.820,254.000 281.600 C 254.000 281.380,253.640 281.200,253.200 281.200 C 252.760 281.200,252.400 281.020,252.400 280.800 C 252.400 280.580,252.122 280.400,251.783 280.400 C 251.444 280.400,250.780 280.040,250.308 279.600 C 249.836 279.160,249.168 278.801,248.825 278.801 C 248.481 278.802,248.830 279.198,249.600 279.682 C 252.058 281.225,256.131 283.200,256.853 283.200 C 257.238 283.200,257.664 283.380,257.800 283.600 C 257.936 283.820,258.476 284.000,259.000 284.000 C 259.524 284.000,260.064 284.180,260.200 284.400 C 260.336 284.620,261.078 284.800,261.850 284.800 C 262.621 284.800,263.622 284.998,264.074 285.240 C 265.203 285.844,278.310 285.850,278.913 285.247 C 279.159 285.001,279.766 284.800,280.261 284.800 C 283.747 284.800,291.961 279.368,294.779 275.200 C 296.486 272.676,297.600 271.808,298.452 272.339 C 299.286 272.861,299.464 272.424,298.720 271.680 C 297.984 270.944,297.770 271.059,296.128 273.081 " stroke="none" fill="#8c8c8c" fill-rule="evenodd"></path><path id="path3" d="M0.000 200.000 L 0.000 400.000 200.000 400.000 L 400.000 400.000 400.000 200.000 L 400.000 0.000 200.000 0.000 L 0.000 0.000 0.000 200.000 M285.781 115.191 C 289.821 115.616,291.569 115.973,297.717 117.631 C 301.864 118.750,303.515 119.406,307.000 121.321 C 308.764 122.290,308.852 122.350,310.658 123.794 C 311.350 124.347,312.026 124.800,312.161 124.800 C 312.297 124.800,312.972 125.340,313.663 126.000 C 314.354 126.660,315.125 127.200,315.378 127.200 C 315.966 127.200,320.000 131.199,320.000 131.782 C 320.000 132.025,320.360 132.483,320.800 132.800 C 321.240 133.117,321.600 133.697,321.600 134.088 C 321.600 134.480,321.753 134.800,321.940 134.800 C 323.822 134.800,327.320 147.451,328.024 156.800 C 328.264 159.990,328.632 162.960,328.842 163.400 C 329.053 163.843,329.174 167.327,329.112 171.200 L 329.000 178.200 308.400 178.311 C 297.070 178.372,287.417 178.329,286.949 178.215 C 286.104 178.011,286.096 177.896,285.891 163.105 C 285.695 149.031,285.430 145.739,284.416 144.800 C 284.297 144.690,284.005 144.240,283.767 143.800 C 283.529 143.360,282.944 142.822,282.467 142.605 C 281.990 142.388,281.600 142.073,281.600 141.905 C 281.600 141.737,280.700 141.600,279.600 141.600 C 278.500 141.600,277.600 141.737,277.600 141.905 C 277.600 142.073,277.210 142.388,276.733 142.605 C 276.256 142.822,275.727 143.270,275.558 143.600 C 274.341 145.976,274.000 147.210,274.000 149.238 C 274.000 150.511,273.820 151.664,273.600 151.800 C 273.337 151.963,273.200 168.596,273.200 200.400 C 273.200 232.204,273.337 248.837,273.600 249.000 C 273.820 249.136,274.000 250.396,274.000 251.800 C 274.000 253.204,274.180 254.464,274.400 254.600 C 274.620 254.736,274.800 255.268,274.800 255.781 C 274.800 259.278,281.023 260.785,283.941 257.996 C 286.857 255.210,287.221 252.899,287.473 235.600 C 287.726 218.246,288.004 219.313,283.169 219.119 L 280.200 219.000 280.094 207.554 C 280.008 198.225,280.090 196.023,280.539 195.651 C 280.941 195.317,287.531 195.221,305.045 195.297 L 329.000 195.400 329.000 239.400 L 329.000 283.400 315.732 283.505 L 302.464 283.611 301.832 282.344 C 301.484 281.647,301.200 280.755,301.200 280.362 C 301.200 279.969,301.020 279.536,300.800 279.400 C 300.580 279.264,300.400 278.724,300.400 278.200 C 300.400 277.676,300.220 277.136,300.000 277.000 C 299.780 276.864,299.600 276.431,299.600 276.038 C 299.600 275.212,298.525 272.925,297.978 272.586 C 297.639 272.377,295.600 274.082,295.600 274.575 C 295.600 274.864,293.803 276.922,291.400 279.384 C 283.689 287.286,266.202 288.477,253.200 281.987 C 249.127 279.954,248.486 279.586,247.993 278.992 C 247.723 278.666,247.299 278.391,247.051 278.380 C 246.803 278.370,245.880 277.650,245.000 276.780 C 244.120 275.911,243.114 275.107,242.764 274.993 C 242.414 274.880,241.874 274.295,241.564 273.693 C 241.254 273.092,240.505 272.123,239.900 271.540 C 239.295 270.956,238.800 270.231,238.800 269.928 C 238.800 269.625,238.440 269.117,238.000 268.800 C 237.560 268.483,237.200 267.903,237.200 267.512 C 237.200 267.120,237.020 266.800,236.800 266.800 C 236.580 266.800,236.400 266.440,236.400 266.000 C 236.400 265.560,236.220 265.200,236.000 265.200 C 235.780 265.200,235.600 264.840,235.600 264.400 C 235.600 263.960,235.420 263.600,235.200 263.600 C 234.980 263.600,234.800 263.321,234.800 262.981 C 234.800 262.640,234.440 261.616,234.000 260.706 C 233.560 259.795,233.200 258.734,233.200 258.348 C 233.200 257.963,233.020 257.536,232.800 257.400 C 232.580 257.264,232.400 256.533,232.400 255.776 C 232.400 255.019,232.220 254.400,232.000 254.400 C 231.769 254.400,231.600 253.141,231.600 251.424 C 231.600 249.787,231.420 248.336,231.200 248.200 C 230.937 248.037,230.800 232.063,230.800 201.576 C 230.800 170.925,230.936 155.200,231.200 155.200 C 231.437 155.200,231.600 153.733,231.600 151.600 C 231.600 149.467,231.763 148.000,232.000 148.000 C 232.220 148.000,232.405 147.325,232.410 146.500 C 232.420 145.081,233.947 139.920,234.529 139.338 C 234.678 139.189,234.800 138.729,234.800 138.317 C 234.800 137.904,235.160 137.180,235.600 136.708 C 236.040 136.236,236.400 135.613,236.400 135.325 C 236.400 135.036,236.580 134.800,236.800 134.800 C 237.020 134.800,237.200 134.480,237.200 134.088 C 237.200 133.697,237.560 133.117,238.000 132.800 C 238.440 132.483,238.800 131.981,238.800 131.686 C 238.800 131.070,242.646 127.200,243.258 127.200 C 243.481 127.200,244.354 126.480,245.200 125.600 C 246.046 124.720,246.903 124.000,247.107 124.000 C 247.310 124.000,247.802 123.640,248.200 123.200 C 248.598 122.760,249.144 122.400,249.413 122.400 C 249.682 122.400,250.124 122.132,250.396 121.805 C 250.873 121.230,256.145 118.575,258.600 117.673 C 264.275 115.589,277.810 114.353,285.781 115.191 M114.006 183.700 C 114.010 224.355,114.157 249.629,114.391 250.000 C 114.709 250.504,116.680 250.632,126.685 250.800 L 138.600 251.000 138.600 267.200 L 138.600 283.400 104.900 283.502 L 71.200 283.605 71.200 200.802 L 71.200 118.000 92.600 118.000 L 114.000 118.000 114.006 183.700 M194.000 183.629 C 194.000 244.510,194.049 249.306,194.671 249.929 C 195.259 250.517,196.800 250.625,207.171 250.800 L 219.000 251.000 219.000 267.200 L 219.000 283.400 185.400 283.400 L 151.800 283.400 151.697 201.200 C 151.641 155.990,151.680 118.775,151.785 118.500 C 151.934 118.109,156.545 118.000,172.987 118.000 L 194.000 118.000 194.000 183.629 " stroke="none" fill="#3c3c3c" fill-rule="evenodd"></path><path id="path4" d="" stroke="none" fill="#d01009c" fill-rule="evenodd"></path></g></svg>